<svg width="292" height="290" xmlns="http://www.w3.org/2000/svg" version="1.1">

 <g>
  <title>Layer 1</title>
  <rect id="svg_3" x="14.98654" transform="matrix(0.800721 0 0 0.800721 0 23.7527)" fill="#6da7f2" y="-15.24397" ry="13.33333" rx="13.33333" height="333.33333" width="333.33333"/>
  <path id="svg_4" fill="#2f3d59" d="m117.42378,205.05412l0,0q-5.37899,0 -7.17199,-3.83565q-1.8157,-3.83565 -1.8157,-8.57916l0,0q0,-3.26825 0.49932,-6.44572q0.49931,-3.20016 0.97593,-5.3109l0,0q1.31638,-6.21875 4.24418,-14.79791q2.9505,-8.57915 6.78616,-18.13424q3.83565,-9.55509 8.10254,-18.9513q4.24418,-9.39622 8.23871,-17.65763q4.01723,-8.23871 7.1039,-14.13972l0,0q-3.74487,0.18157 -8.64724,-0.06809q-4.90237,-0.24966 -10.14518,-0.24966l0,0q-8.98768,0 -17.72571,1.38446q-8.73803,1.38447 -14.29859,6.46841l0,0q-2.61005,2.45119 -3.74487,5.22012q-1.15751,2.76893 -1.15751,5.56056l0,0q0,3.10938 0.97594,6.03719l0,0q0.18156,0.34044 0.18156,0.81706l0,0q0,1.63413 -1.63412,1.63413l0,0q-0.99864,0 -1.47526,-0.81706l0,0q-1.63412,-2.61005 -2.3831,-5.3109q-0.72628,-2.70085 -0.72628,-5.3109l0,0q0,-4.56193 1.63413,-8.64724q1.63413,-4.08532 3.92644,-6.71807l0,0q5.71943,-6.69537 15.52418,-8.8969q9.80475,-2.20153 20.42656,-2.20153l0,0q8.17062,0 15.93271,0.65818q7.76209,0.63549 13.79927,0.97593l0,0q5.71944,0.31775 14.2305,1.06672q8.48837,0.72628 16.50011,0.72628l0,0q7.19469,0 12.91412,-0.97593q5.71944,-0.97593 8.3295,-3.60869l0,0q0.47662,0.99864 0.47662,2.29231l0,0q0,3.42713 -3.90375,6.69537q-3.92644,3.26825 -10.6218,4.42575l0,0q-2.13344,0.31775 -4.83429,0.47662q-2.70085,0.18157 -5.62865,0.18157l0,0q-4.90237,0 -9.80475,-0.24966q-4.90237,-0.24966 -8.66993,-0.56741q-3.74487,-0.34044 -5.06125,-0.18157l0,0q-0.97593,1.47525 -3.01859,5.40169q-2.04266,3.92644 -4.33498,8.48837q-2.29231,4.58462 -4.08531,8.35219l0,0q-3.10938,6.5365 -6.53649,14.70712q-3.42713,8.17062 -6.5365,16.50011q-3.10938,8.3295 -5.3109,15.84194q-2.20153,7.51243 -2.85972,12.91412l0,0q-0.15887,0.49932 -0.15887,1.06672q0,0.56741 0,1.06672l0,0q0,3.08668 1.22559,5.31091q1.22559,2.20153 3.83565,2.20153l0,0q2.29231,0 5.56056,-2.45119q3.26825,-2.45118 7.51244,-8.17062l0,0q0.81706,-0.97593 1.47525,-0.97593l0,0q0.97593,0 0.97593,1.63413l0,0q0,1.13481 -0.72628,3.08668q-0.74897,1.97457 -2.54197,4.58463l0,0q-1.47525,2.13344 -4.7435,5.62865q-3.26825,3.5179 -6.37762,5.96909l0,0q-2.76893,2.29231 -6.85424,4.08531q-4.08531,1.793 -7.85288,1.793z"/>
 </g>
</svg>