<svg xmlns="http://www.w3.org/2000/svg" version="1.1" xmlns:xlink="http://www.w3.org/1999/xlink" xmlns:svgjs="http://svgjs.dev/svgjs" width="100%" height="100%" viewBox="0 0 1000 600"><rect width="1000" height="600" x="0" y="0" fill="#2f3d59"/><g><rect width="333.3333333333333" height="333.3333333333333" rx="13.333333333333334" ry="13.333333333333334" y="178.33155500697598" fill="#6da7f2" transform="matrix(0.8007209682573645,0,0,0.8007209682573643,0,23.75269112930475)" x="156.10934448242188"/><path d="M287.77034408307964 419.99823520959086L287.77034408307964 419.99823520959086Q281.05265677581485 419.99823520959086 278.8134276733932 415.2079856107396Q276.54585389878906 410.4177360118884 276.54585389878906 404.49369952573505L276.54585389878906 404.49369952573505Q276.54585389878906 400.4120667314475 277.1694366868052 396.4438126258903Q277.79301947482134 392.4472138481505 278.3882575906549 389.81115933517316L278.3882575906549 389.81115933517316Q280.03224857724297 382.0447191571539 283.68871128879215 371.33043307214933Q287.3735186725239 360.61614698714476 292.16376827137515 348.68303999829044Q296.9540178702264 336.749933009436 302.28281624054614 325.01523872585955Q307.5832699386834 313.2805444422831 312.5719322428125 302.9630837678342Q317.5889392191242 292.6739677655679 321.4438146359512 285.3043529981044L321.4438146359512 285.3043529981044Q316.7669437258302 285.5311103755648 310.644494534399 285.21931898155674Q304.5220453429678 284.90752758754866 297.97442606879827 284.90752758754866L297.97442606879827 284.90752758754866Q286.74993588450775 284.90752758754866 275.8372370942253 286.63655259068435Q264.9245383039428 288.36557759382003 257.9800936192176 294.7147841627117L257.9800936192176 294.7147841627117Q254.72045631822414 297.7760087584272 253.30322270909653 301.2340587646986Q251.8576444277864 304.69210877096987 251.8576444277864 308.17850344942383L251.8576444277864 308.17850344942383Q251.8576444277864 312.06172353843334 253.07646533163614 315.7181862499826L253.07646533163614 315.7181862499826Q253.30322270909653 316.1433563327209 253.30322270909653 316.73859444855447L253.30322270909653 316.73859444855447Q253.30322270909653 318.7794108456981 251.26240631195282 318.7794108456981L251.26240631195282 318.7794108456981Q250.01524073592054 318.7794108456981 249.42000262008696 317.75900264712635L249.42000262008696 317.75900264712635Q247.3791862229432 314.49936534613283 246.443812040919 311.12634935640915Q245.53678253107734 307.7533333666855 245.53678253107734 304.493696065692L245.53678253107734 304.493696065692Q245.53678253107734 298.7964169569991 247.57759892822105 293.6943759641398Q249.61841532536482 288.5923349712804 252.48122721580256 285.3043529981044L252.48122721580256 285.3043529981044Q259.6240846058056 276.9426747042516 271.868982988668 274.1932415025441Q284.1138813715304 271.4438083008365 297.3791879529647 271.4438083008365L297.3791879529647 271.4438083008365Q307.5832699386834 271.4438083008365 317.2771478251161 272.26580379413053Q326.9710257115488 273.059454615242 334.5107085121076 273.4846246979803L334.5107085121076 273.4846246979803Q341.6535659021107 273.881450108536 352.28281797056763 274.81682429056025Q362.88372536684204 275.7238538004019 372.88939464728287 275.7238538004019L372.88939464728287 275.7238538004019Q381.8746557291518 275.7238538004019 389.01751311915484 274.50503289655217Q396.16037050915793 273.2862119927024 399.4200078101514 269.99823001952643L399.4200078101514 269.99823001952643Q400.015245925985 271.24539559555865 400.015245925985 272.8610419099641L400.015245925985 272.8610419099641Q400.015245925985 277.1410874095295 395.13996231058604 281.22272020381695Q390.2363340230046 285.3043529981044 381.8746557291518 286.74993127941457L381.8746557291518 286.74993127941457Q379.21025654399193 287.1467566899703 375.83724055426825 287.34516939524815Q372.46422456454457 287.5719267727086 368.80776185299544 287.5719267727086L368.80776185299544 287.5719267727086Q362.6853126615642 287.5719267727086 356.56286347013304 287.2601353787005Q350.4404142787018 286.9483439846924 345.73519869639813 286.5515185741367Q341.0583277862771 286.1263484913984 339.41433679968907 286.32476119667626L339.41433679968907 286.32476119667626Q338.1955158958394 288.1671648885422 335.6444953994097 293.07079317612363Q333.09347490298 297.9744214637051 330.2306630125423 303.671700572398Q327.3678511221046 309.39732435327346 325.128622019683 314.1025399355771L325.128622019683 314.1025399355771Q321.2454019306733 322.2658055241521 316.96535643110803 332.4698875098707Q312.68531093154274 342.67396949558935 308.80209084253306 353.07646418658595Q304.9188707535235 363.47895887758244 302.169437551816 372.86104537000716Q299.42000435010846 382.24313186243177 298.59800885681443 388.98916384187913L298.59800885681443 388.98916384187913Q298.39959615153657 389.6127466298953 298.39959615153657 390.3213634344591Q298.39959615153657 391.0299802390229 298.39959615153657 391.65356302703907L298.39959615153657 391.65356302703907Q298.39959615153657 395.50843844386605 299.9302084493944 398.2862163177562Q301.46082074725217 401.0356495194637 304.72045804824563 401.0356495194637L304.72045804824563 401.0356495194637Q307.5832699386834 401.0356495194637 311.66490273297086 397.97442492374813Q315.7465355272583 394.9132003280325 321.04698922539546 387.7703429380294L321.04698922539546 387.7703429380294Q322.06739742396735 386.55152203417964 322.8893929172614 386.55152203417964L322.8893929172614 386.55152203417964Q324.1082138211111 386.55152203417964 324.1082138211111 388.5923384313234L324.1082138211111 388.5923384313234Q324.1082138211111 390.009572040451 323.20118431126946 392.4472138481505Q322.2658101292452 394.9132003280325 320.02658102682364 398.172837629026L320.02658102682364 398.172837629026Q318.1841773349578 400.8372368141858 314.10254454067035 405.20231633029886Q310.0209117463828 409.59574051859437 306.13769165737324 412.65696511431L306.13769165737324 412.65696511431Q302.67964165110186 415.5197770047477 297.57760065824255 417.75900610716934Q292.47555966538323 419.99823520959086 287.77034408307964 419.99823520959086Z " fill="#2f3d59" transform="matrix(0.8007209682573645,0,0,0.8007209682573643,0,23.75269112930475)"/><path d="M613.3533581543891 419.99822460048887L613.3533581543891 419.99822460048887Q606.8991100029382 419.99822460048887 604.7476939524545 415.3958282393276Q602.5690447874078 410.79343187816636 602.5690447874078 405.1017109344818L602.5690447874078 405.1017109344818Q602.5690447874078 401.1801424373977 603.1681733077957 397.3675063985658Q603.7673018281835 393.527637245171 604.3391972340082 390.9949575908042L604.3391972340082 390.9949575908042Q605.9187178786672 383.5330842005191 609.431789657305 373.2389668956733Q612.972094550506 362.94484959082746 617.5744909116672 351.47970835976895Q622.1768872728285 340.01456712871055 627.2967128106882 328.7400576995937Q632.3893052339849 317.46554827047675 637.1823333970879 307.5526945695142Q642.0025946747537 297.66707398311456 645.7062982553332 290.58646419671265L645.7062982553332 290.58646419671265Q641.2128343524244 290.80432911321736 635.3304816067981 290.5047648530234Q629.4481288611719 290.20520059282956 623.1572793970995 290.20520059282956L623.1572793970995 290.20520059282956Q612.372966030118 290.20520059282956 601.8882169233307 291.86642058117764Q591.4034678165433 293.5276405695258 584.7313547485876 299.62785823165666L584.7313547485876 299.62785823165666Q581.599546573833 302.5690346044697 580.2378908456787 305.891474581166Q578.8490020029615 309.21391455786227 578.8490020029615 312.56358764912164L578.8490020029615 312.56358764912164Q578.8490020029615 316.2945243442642 580.0200259291742 319.807596122902L580.0200259291742 319.807596122902Q580.2378908456787 320.21609284134826 580.2378908456787 320.787988247173L580.2378908456787 320.787988247173Q580.2378908456787 322.7487724957152 578.2771065971367 322.7487724957152L578.2771065971367 322.7487724957152Q577.078849556361 322.7487724957152 576.5069541505362 321.76838037144404L576.5069541505362 321.76838037144404Q574.5461699019942 318.63657219668943 573.6474771214124 315.3958315636824Q572.7760174553937 312.1550909306754 572.7760174553937 309.0232827559207L572.7760174553937 309.0232827559207Q572.7760174553937 303.54942672874074 574.7368017039357 298.64746610738564Q576.6975859524778 293.7455054860304 579.4481305233494 290.58646419671265L579.4481305233494 290.58646419671265Q586.3108753932465 282.55269540060283 598.0755808844989 279.9110832879837Q609.8402863757512 277.2694711753645 622.5853839912747 277.2694711753645L622.5853839912747 277.2694711753645Q632.3893052339849 277.2694711753645 641.7030304145599 278.059231497694Q651.0167555951346 278.8217587054603 658.260764068915 279.23025542390656L658.260764068915 279.23025542390656Q665.1235089388122 279.61151902778977 675.3359268999687 280.51021180837154Q685.5211117465623 281.38167147439026 695.134401187331 281.38167147439026L695.134401187331 281.38167147439026Q703.7672985038287 281.38167147439026 710.6300433737259 280.2106475481776Q717.4927882436231 279.039623621965 720.6245964183778 275.88058233264724L720.6245964183778 275.88058233264724Q721.1964918242026 277.07883937342297 721.1964918242026 278.63112690351875L721.1964918242026 278.63112690351875Q721.1964918242026 282.74332720254444 716.512396119352 286.6648956996286Q711.8010672999385 290.58646419671265 703.7672985038287 291.97535303943L703.7672985038287 291.97535303943Q701.2073857348988 292.35661664331315 697.9666451018918 292.54724844525475Q694.7259044688848 292.7651133617594 691.2128326902468 292.7651133617594L691.2128326902468 292.7651133617594Q685.3304799446207 292.7651133617594 679.4481271989945 292.4655491015655Q673.5657744533684 292.1659848413716 669.0450774358964 291.7847212374884Q664.5516135329874 291.3762245190421 662.9720928883286 291.56685632098373L662.9720928883286 291.56685632098373Q661.8010689621159 293.33700876758417 659.3500886514383 298.0483375869977Q656.8991083407608 302.75966640641127 654.1485637698893 308.23352243359125Q651.3980191990178 313.7346115753343 649.2466031485342 318.2553085928062L649.2466031485342 318.2553085928062Q645.5156664533915 326.0984455869745 641.4034661543659 335.9023668296848Q637.2912658553402 345.7062880723951 633.5603291601976 355.700841117047Q629.8293924650551 365.69539416169897 627.187780352436 374.7095550820798Q624.5461682398168 383.72371600246066 623.7564079174873 390.2051972684747L623.7564079174873 390.2051972684747Q623.5657761155458 390.8043257888625 623.5657761155458 391.4851536529397Q623.5657761155458 392.16598151701675 623.5657761155458 392.76511003740467L623.5657761155458 392.76511003740467Q623.5657761155458 396.46881361798404 625.0363643019523 399.1376588451663Q626.5069524883588 401.7792709577855 629.6387606631135 401.7792709577855L629.6387606631135 401.7792709577855Q632.3893052339849 401.7792709577855 636.3108737310691 398.83809458497245Q640.2324422281532 395.8969182121593 645.32503465145 389.03417334226214L645.32503465145 389.03417334226214Q646.305426775721 387.86314941604945 647.0951870980505 387.86314941604945L647.0951870980505 387.86314941604945Q648.2662110242632 387.86314941604945 648.2662110242632 389.8239336645915L648.2662110242632 389.8239336645915Q648.2662110242632 391.1855893927457 647.3947513582443 393.527637245171Q646.4960585776626 395.8969182121593 644.344642527179 399.028726386914L644.344642527179 399.028726386914Q642.5744900805785 401.58863915584396 638.6529215834944 405.78253879855885Q634.7313530864103 410.0036715558369 631.0004163912677 412.94484792865006L631.0004163912677 412.94484792865006Q627.6779764145715 415.6953924995216 622.7760157932163 417.84680855000516Q617.8740551718611 419.99822460048887 613.3533581543891 419.99822460048887ZM690.0418087640343 417.0570482276757L690.0418087640343 417.0570482276757Q683.7509592999618 417.0570482276757 681.0004147290903 411.7738240024374L681.0004147290903 411.7738240024374Q678.8489986786067 407.0624951830238 678.8489986786067 400.60824703157283L678.8489986786067 400.60824703157283Q678.8489986786067 393.33700544322943 681.0004147290903 384.51347632479013Q683.179063894137 375.68994720635084 686.8827674747165 366.4851544840283L686.8827674747165 366.4851544840283Q688.2716563174338 363.135481392769 690.5320048261698 358.04288896947224Q692.7651202203427 352.9502965461755 695.9241615096604 348.0483359248204L695.9241615096604 348.0483359248204Q693.173616938789 350.39038377724563 689.4426802436464 351.86097196365216Q685.7117435485039 353.3315601500587 682.198671769866 353.3315601500587L682.198671769866 353.3315601500587Q679.4481271989945 353.3315601500587 677.677974752394 352.5690329422924L677.677974752394 352.5690329422924Q676.0984541077352 355.700841117047 672.5853823290972 362.7542177888858Q669.0450774358964 369.8075944607246 663.1627246902701 379.42088390149337L663.1627246902701 379.42088390149337Q662.5908292844454 380.4012760257644 662.1006332223099 379.31195144324107Q661.6104371601743 378.2498599752808 661.6104371601743 376.28907572673864L661.6104371601743 376.28907572673864Q661.6104371601743 374.7095550820798 661.9917007640576 372.9394026354793Q662.3729643679408 371.1964833034419 663.1627246902701 369.61696265878305L663.1627246902701 369.61696265878305Q665.1235089388122 365.8860259636405 667.0842931873543 361.8827581228671Q669.0450774358964 357.8522571675307 670.6245980805552 354.72044899277597Q672.176885610651 351.58864081802136 672.3947505271557 350.7988804956919L672.3947505271557 350.7988804956919Q668.8544456339547 349.0287280490914 667.0842931873543 345.7879874160844Q665.3141407407538 342.54724678307736 665.3141407407538 339.41543860832263L665.3141407407538 339.41543860832263Q665.3141407407538 336.283630433568 666.7847289271604 333.72371766463806Q668.2553171135669 331.19103801027126 671.19649348638 329.802149167554L671.19649348638 329.802149167554Q672.9666459329804 329.2302537617292 674.5461665776394 329.2302537617292L674.5461665776394 329.2302537617292Q678.8489986786067 329.2302537617292 681.5995432494782 331.9807983326007L681.5995432494782 331.9807983326007Q681.4089114475365 332.74332554036704 681.2999789892842 333.6420183209488Q681.218279645595 334.51347798696753 681.218279645595 335.49387011123855L681.218279645595 335.49387011123855Q681.218279645595 341.56685465880634 686.1202402669502 344.5080310316194Q691.0222008883053 347.44920740443246 696.6866887174268 346.68668019666615L696.6866887174268 346.68668019666615Q699.4372332882983 342.76511169958206 702.9775381814992 339.8239353267689Q706.4906099601371 336.88275895395583 710.6300433737259 336.88275895395583L710.6300433737259 336.88275895395583Q712.7814594242096 336.88275895395583 716.784727264983 337.0733907558974Q720.8152282203195 337.26402255783904 722.5853806669198 337.0733907558974L722.5853806669198 337.0733907558974Q721.4143567407073 337.86315107822685 719.8348360960484 340.2051989306521Q718.2553154513895 342.54724678307736 716.8936597232353 345.1071595520073Q715.532003995081 347.66707232093717 714.7422436727517 349.0287280490914L714.7422436727517 349.0287280490914Q709.4317863329502 359.2139128956849 704.9383224300414 369.3173983985891Q700.4176254125694 379.42088390149337 698.0755775601441 388.6256766238159L698.0755775601441 388.6256766238159Q697.6670808416978 390.39582907041626 697.3947496960669 391.8664172568229Q697.0951854358731 393.33700544322943 697.0951854358731 394.91652608788826L697.0951854358731 394.91652608788826Q697.0951854358731 400.7988788335145 701.0167539329572 400.7988788335145L701.0167539329572 400.7988788335145Q703.7672985038287 400.7988788335145 708.8598909271254 396.8773103364304L708.8598909271254 396.8773103364304Q713.3533548300344 393.14637364128777 716.8936597232353 388.6256766238159L716.8936597232353 388.6256766238159Q720.8152282203195 383.5330842005191 724.3555331135203 377.6507314548929Q727.8686048921583 371.76837870926676 730.4285176610881 366.86641808791154L730.4285176610881 366.86641808791154Q731.4089097853591 365.31413055781576 731.7901733892423 365.31413055781576L731.7901733892423 365.31413055781576Q732.9611973154549 365.31413055781576 732.9611973154549 368.8272023364536L732.9611973154549 368.8272023364536Q732.9611973154549 370.21609117917086 732.5799337115718 372.1768754277129Q732.1986701076886 374.13765967625505 731.2182779834176 375.8805790082924L731.2182779834176 375.8805790082924Q728.2771016106045 380.7825396296476 724.5461649154619 386.58319303158447Q720.8152282203195 392.3566133189584 716.8936597232353 397.8577024607013L716.8936597232353 397.8577024607013Q714.3337469543054 401.37077423933926 709.7313505931442 405.89147125681126Q705.1289542319829 410.41216827428315 699.9274293504338 413.7346082509794Q694.7259044688848 417.0570482276757 690.0418087640343 417.0570482276757ZM783.1790605697822 416.86641642573414L783.1790605697822 416.86641642573414Q777.0788429076514 416.86641642573414 774.8457275134784 412.1550876063206Q772.5853790047425 407.4709919014701 772.5853790047425 400.60824703157283L772.5853790047425 400.60824703157283Q772.5853790047425 394.31739756750045 773.7564029309551 388.24441301993267L773.7564029309551 388.24441301993267Q774.3555314513429 385.49386844906115 775.03635931542 382.6616245345004Q775.7171871794972 379.8021475053766 776.6975793037682 376.67033933062186L776.6975793037682 376.67033933062186Q773.3751393270719 382.74332387818964 769.7259019756186 388.4350448218742Q766.1038977387284 394.1267657655588 762.3729610435859 398.4295978665261L762.3729610435859 398.4295978665261Q756.1093446940765 406.0821030587528 749.137667365927 411.1746954820496Q742.1932231523405 416.2945210199094 735.3304782824433 416.2945210199094L735.3304782824433 416.2945210199094Q729.8293891407003 416.2945210199094 726.0167531018685 412.2640200645729Q722.1768839484736 408.2335191092365 722.1768839484736 398.23896606458453L722.1768839484736 398.23896606458453Q722.1768839484736 388.053781217991 725.7171888416746 377.26946785100967Q729.2574937348755 366.4851544840283 735.6300425426372 357.17142930345364Q742.0025913503989 347.85770412287883 750.7171880105858 342.16598317919414Q759.4317846707728 336.47426223550957 769.8348344338709 336.47426223550957L769.8348344338709 336.47426223550957Q773.1572744105672 336.47426223550957 777.0788429076514 337.4546543597806Q781.0004114047355 338.4350464840516 784.3500844959948 341.0766585966708Q787.6725244726911 343.7455038238531 788.8435483989037 348.4295995287036L788.8435483989037 348.4295995287036Q789.0614133154085 348.0483359248204 789.3337444610393 347.85770412287883Q789.6333087212332 347.66707232093717 789.8239405231748 347.44920740443246L789.8239405231748 347.44920740443246Q792.5744850940463 343.14637530346516 796.1147899872473 340.2051989306521Q799.6278617658851 337.26402255783904 803.9579269814154 337.26402255783904L803.9579269814154 337.26402255783904Q806.1093430318991 337.26402255783904 810.0309115289832 337.4546543597806Q813.9524800260674 337.64528616172225 815.7226324726679 337.4546543597806L815.7226324726679 337.4546543597806Q814.7422403483968 338.24441468211006 813.0810203600487 340.5864625345353Q811.3925672571376 342.9557435015236 810.0309115289832 345.40672381220116Q808.6692558008291 347.85770412287883 807.8794954784995 349.21935985103295L807.8794954784995 349.21935985103295Q802.5690381386981 359.4317778121895 798.2662060377309 369.4263308568415Q793.9633739367636 379.42088390149337 791.5940929697753 388.6256766238159L791.5940929697753 388.6256766238159Q791.0221975639505 390.5864608723579 790.8043326474458 392.27491397526916Q790.6137008455042 393.93613396361724 790.6137008455042 395.488421493713L790.6137008455042 395.488421493713Q790.6137008455042 400.60824703157283 793.9633739367636 400.60824703157283L793.9633739367636 400.60824703157283Q797.0951821115183 400.60824703157283 801.8065109309317 396.68667853448875L801.8065109309317 396.68667853448875Q808.6692558008291 391.1855893927457 813.843547567815 382.96118879469435Q819.045072449364 374.7095550820798 822.9666409464483 367.0570498898531L822.9666409464483 367.0570498898531Q823.7564012687777 365.69539416169897 824.3555297891655 365.69539416169897L824.3555297891655 365.69539416169897Q825.5265537153781 365.69539416169897 825.5265537153781 369.01783413839524L825.5265537153781 369.01783413839524Q825.5265537153781 370.5973547830541 825.0363576532426 372.5581390315961Q824.5461615911071 374.51892328013815 823.5657694668361 376.28907572673864L823.5657694668361 376.28907572673864Q820.8152248959645 381.0004045461522 816.403460336745 387.86314941604945Q811.9916957775253 394.7258942859467 806.4906066357822 401.28907489565Q801.0167506086024 407.8522555053533 795.0254654047238 412.3729525228253Q789.0614133154085 416.86641642573414 783.1790605697822 416.86641642573414ZM744.1540074008825 399.8184867092435L744.1540074008825 399.8184867092435Q744.7259028067073 400.009118511185 745.9241598474831 400.009118511185L745.9241598474831 400.009118511185Q749.6278634280625 400.009118511185 753.9579286435929 396.8773103364304Q758.2607607445601 393.7455021616757 762.5908259600906 388.7346090820682Q766.8936580610579 383.72371600246066 770.2160980377541 378.6311235791639L770.2160980377541 378.6311235791639Q778.8489953542519 364.9056338393695 782.9611956532776 358.04288896947224Q787.1006290668663 351.1801440995751 787.6725244726911 350.19975197530397L787.6725244726911 350.19975197530397Q786.69213234842 346.8773119986077 784.2411520377425 345.29779135394887Q781.790171727065 343.7455038238531 778.4677317503687 343.7455038238531L778.4677317503687 343.7455038238531Q774.1376665348382 343.7455038238531 769.3446383717354 346.08755167627834Q764.5516102086326 348.4295995287036 761.2019371173733 351.7792726199629L761.2019371173733 351.7792726199629Q756.1093446940765 356.8718650432597 751.5069483329153 364.9056338393695Q746.9045519717541 372.9394026354793 744.0450749426302 380.7825396296476Q741.2128310280694 388.6256766238159 741.2128310280694 393.93613396361724L741.2128310280694 393.93613396361724Q741.2128310280694 398.83809458497245 744.1540074008825 399.8184867092435ZM841.5940913075979 417.6561767480636L841.5940913075979 417.6561767480636Q832.3892985852754 417.6561767480636 826.6975776415908 414.22480431311493Q821.0058566979062 410.79343187816636 818.5548763872285 405.02001159079254Q816.103896076551 399.21935818885555 816.103896076551 392.54724512089996L816.103896076551 392.54724512089996Q816.103896076551 385.9023651675074 818.064680325093 379.03962029761016Q820.0254645736352 372.1768754277129 823.3751376648945 366.07665776558207L823.3751376648945 366.07665776558207Q830.2378825347918 353.74005686850495 840.3141349231329 345.7062880723951Q850.4176204260372 337.64528616172225 865.1235022901026 337.64528616172225L865.1235022901026 337.64528616172225Q874.3555281269881 337.64528616172225 879.4481205502849 342.3566149811358Q884.5407129735817 347.06794380054936 884.5407129735817 353.3315601500587L884.5407129735817 353.3315601500587Q884.5407129735817 359.2139128956849 881.109340538633 364.11587351704003Q877.6779681036843 369.01783413839524 871.9862471599998 369.01783413839524L871.9862471599998 369.01783413839524Q868.8544389852451 369.01783413839524 866.5123911328199 367.2749148063578Q864.1431101658316 365.5047623597573 864.1431101658316 361.7738256646148L864.1431101658316 361.7738256646148Q864.1431101658316 361.17469714422697 864.2520426240839 360.4938692801499Q864.3337419677731 359.81304141607274 864.5516068842778 359.02328109374326L864.5516068842778 359.02328109374326Q865.7226308104904 358.8326492918017 867.9829793192265 358.3424532296662Q870.2160947133993 357.8522571675307 871.6049835561166 355.700841117047L871.6049835561166 355.700841117047Q874.1376632104834 352.1605362238461 874.1376632104834 348.6474644452082L874.1376632104834 348.6474644452082Q874.1376632104834 346.46881528016144 872.8849399405816 344.9982270937549Q871.6049835561166 343.5276389073484 868.6638071833036 343.5276389073484L868.6638071833036 343.5276389073484Q863.3533498435021 343.5276389073484 857.8794938163222 347.3675080607432Q852.3784046745792 351.1801440995751 847.5853765114763 357.4709935636475Q842.7651152338104 363.7346099131568 839.2520434551726 371.1964833034419L839.2520434551726 371.1964833034419Q833.7509543134296 383.1518205966359 833.7509543134296 393.14637364128777L833.7509543134296 393.14637364128777Q833.7509543134296 400.39038211506823 837.1006274046889 405.02001159079254Q840.4230673813853 409.6224079519538 847.6670758551656 409.6224079519538L847.6670758551656 409.6224079519538Q856.8991016920512 409.6224079519538 865.0418029464133 403.24985914419204Q873.1572710862124 396.8773103364304 879.6387523522266 388.4350448218742L879.6387523522266 388.4350448218742Q883.9415844531937 382.96118879469435 887.3729568881423 377.26946785100967Q890.804329323091 371.5777469073251 893.1736102900793 366.86641808791154L893.1736102900793 366.86641808791154Q893.9633706124088 365.5047623597573 894.5352660182335 365.5047623597573L894.5352660182335 365.5047623597573Q895.7062899444462 365.5047623597573 895.7062899444462 368.8272023364536L895.7062899444462 368.8272023364536Q895.7062899444462 370.4067229811125 895.2160938823107 372.4492065733438Q894.7258978201751 374.51892328013815 893.7455056959041 376.28907572673864L893.7455056959041 376.28907572673864Q890.4230657192078 381.7629317539186 886.9916932842592 387.26402089566164Q883.5603208493106 392.76511003740467 879.6387523522266 397.66707065875977L879.6387523522266 397.66707065875977Q872.9666392842709 406.27273486069436 863.95247836389 411.96445580437904Q854.9383174435092 417.6561767480636 841.5940913075979 417.6561767480636ZM885.9023687017358 415.6953924995216L873.9470314085419 415.6953924995216Q876.0984474590256 411.7738240024374 878.7672926862077 405.7008394548696Q881.4089047988269 399.6278549073018 884.0505169114462 392.4655457772107Q886.6921290240653 385.3032366471196 888.8435450745488 378.6311235791639L888.8435450745488 378.6311235791639Q893.7455056959041 363.54397811121527 898.9470305774531 348.83809624714985Q904.1485554590023 334.1322143830843 909.4317796842406 323.347901016103L909.4317796842406 323.347901016103Q911.6104288492874 318.63657219668943 914.9328688259836 311.8827597850446Q918.2553088026799 305.1017142588365 922.476441559958 297.85770578505617Q926.697574317236 290.58646419671265 931.7084673968435 284.213915388951Q936.6921273618879 277.8413665811893 942.4927807638247 273.91979808410514Q948.2662010511987 269.998229587021 954.529817400708 269.998229587021L954.529817400708 269.998229587021Q960.8206668647805 269.998229587021 963.0810153735164 272.7487741578925Q965.3141307676893 275.499318728764 965.3141307676893 279.61151902778977L965.3141307676893 279.61151902778977Q965.3141307676893 284.13221604526177 963.3533465191473 289.2248084685585Q961.3925622706053 294.3174008918552 959.6496429385678 297.66707398311456L959.6496429385678 297.66707398311456Q955.7280744414837 305.1017142588365 949.5461574356635 314.4154394394114Q943.3642404298436 323.7291646199862 936.6921273618879 331.762933416096L936.6921273618879 331.762933416096Q933.3696873851916 335.9023668296848 928.658358565778 341.0766585966708Q923.9470297463644 346.2781834782199 919.3446333852032 350.98951229763344Q914.742237024042 355.700841117047 911.3925639327827 359.02328109374326L911.3925639327827 359.02328109374326L907.8794921541447 368.8272023364536Q912.9720845774415 362.155089268498 918.6638055211262 356.8718650432597Q924.3555264648107 351.58864081802136 931.0004064182033 346.2781834782199L931.0004064182033 346.2781834782199Q935.9023670395584 342.3566149811358 941.2945237230491 340.39583073259365Q946.6866804065398 338.4350464840516 951.2073774240117 338.4350464840516L951.2073774240117 338.4350464840516Q954.529817400708 338.4350464840516 957.3892944298319 339.41543860832263Q960.2215383443927 340.39583073259365 961.6104271871098 342.54724678307736L961.6104271871098 342.54724678307736Q962.5908193113809 343.93613562579463 962.9720829152642 345.4884231558904Q963.3533465191473 347.06794380054936 963.3533465191473 348.6474644452082L963.3533465191473 348.6474644452082Q963.3533465191473 351.7792726199629 962.1823225929347 354.72044899277597L962.1823225929347 354.72044899277597Q959.6496429385678 360.79343354034376 954.829381660902 365.0145662976218Q950.0363534977992 369.23569905489984 943.9633689502314 371.38711510538354L943.9633689502314 371.38711510538354Q941.7847197851846 372.1768754277129 938.2716480065468 373.15726755198403Q934.7313431133458 374.13765967625505 931.9807985424743 374.51892328013815L931.9807985424743 374.51892328013815Q932.3892952609206 377.26946785100967 932.6888595211145 380.0200124218812Q932.9611906667453 382.74332387818964 933.3696873851916 385.49386844906115L933.3696873851916 385.49386844906115Q934.5407113114043 392.16598151701675 936.392563101694 396.8773103364304Q938.2716480065468 401.58863915584396 942.3838483055724 401.58863915584396L942.3838483055724 401.58863915584396Q946.114785000715 401.58863915584396 952.3784013502244 396.68667853448875L952.3784013502244 396.68667853448875Q956.8990983676964 393.14637364128777 960.2215383443927 388.6256766238159L960.2215383443927 388.6256766238159Q964.1431068414768 383.5330842005191 967.6834117346776 377.7596639131452Q971.1964835133156 371.9590105112083 973.7563962822454 367.0570498898531L973.7563962822454 367.0570498898531Q974.546156604575 365.69539416169897 975.1180520103998 365.69539416169897L975.1180520103998 365.69539416169897Q976.3163090511754 365.69539416169897 976.3163090511754 368.8272023364536L976.3163090511754 368.8272023364536Q976.3163090511754 370.5973547830541 975.8261129890399 372.6670714898485Q975.3359169269044 374.7095550820798 974.1376598861287 376.67033933062186L974.1376598861287 376.67033933062186Q971.4143484298203 381.3816681500354 967.7651110783669 386.88275729177843Q964.1431068414768 392.3566133189584 960.2215383443927 397.66707065875977L960.2215383443927 397.66707065875977Q958.0701222939089 400.60824703157283 954.7476823172127 404.12131881021077Q951.3980092259534 407.66162370341164 947.6670725308107 410.6028000762248L947.6670725308107 410.6028000762248Q944.3446325541146 413.1354797305916 939.633303734701 415.20519643738606Q934.9219749152874 417.2749131441804 930.4285110123785 417.2749131441804L930.4285110123785 417.2749131441804Q926.8882061191775 417.2749131441804 923.8653304026751 415.6953924995216Q920.8152215716098 414.11587185486263 918.8544373230677 410.41216827428315L918.8544373230677 410.41216827428315Q916.7030212725841 406.27273486069436 915.5319973463714 400.60824703157283Q914.3337403055958 394.91652608788826 914.3337403055958 389.2248051442037L914.3337403055958 389.2248051442037Q914.3337403055958 386.09299696944896 914.6333045657897 383.0428881383836Q914.9328688259836 380.0200124218812 915.7226291483131 377.4600996529513L915.7226291483131 377.4600996529513Q916.7030212725841 374.13765967625505 917.6834133968551 372.9394026354793Q918.6638055211262 371.76837870926676 920.216093051222 371.76837870926676L920.216093051222 371.76837870926676Q925.9078139949065 371.5777469073251 931.4089031366495 370.10715872091856Q936.8827591638294 368.63657053451203 940.6136958589719 365.31413055781576L940.6136958589719 365.31413055781576Q945.1343928764439 361.3925620607317 945.1343928764439 356.49060143937646L945.1343928764439 356.49060143937646Q945.1343928764439 354.3119522743297 943.6638046900374 352.65073228598163Q942.1932165036309 350.98951229763344 938.8435434123716 350.98951229763344L938.8435434123716 350.98951229763344Q934.3500795094627 350.98951229763344 930.0200142939323 353.9306886704465Q925.717182192965 356.8718650432597 921.7956136958808 361.5831938626732Q917.8740451987967 366.2945226820868 914.5516052221004 371.27818264713125Q911.2019321308411 376.28907572673864 908.8598842784158 380.4012760257644L908.8598842784158 380.4012760257644Q907.0897318318154 383.34245239857745 904.9383157813317 388.053781217991Q902.7868997308481 392.76511003740467 900.4176187638597 397.8577024607013Q898.0755709114345 402.9502948839981 895.7062899444462 407.0624951830238Q893.3642420920208 411.1746954820496 891.2128260415373 413.1354797305916L891.2128260415373 413.1354797305916Q888.6529132726073 415.6953924995216 885.9023687017358 415.6953924995216L885.9023687017358 415.6953924995216ZM916.5123894706425 345.7062880723951L916.5123894706425 345.7062880723951Q926.3163107133528 334.322846185026 935.7117352376168 321.76838037144404Q945.1343928764439 309.21391455786227 951.8065059443996 296.0875533384557L951.8065059443996 296.0875533384557Q952.3784013502244 295.10716121418466 953.7672901929417 291.97535303943Q955.1289459210959 288.8435448646753 956.4089023055609 285.1126081695328Q957.6888586900258 281.38167147439026 957.6888586900258 278.63112690351875L957.6888586900258 278.63112690351875Q957.6888586900258 275.11805512488087 954.9383141191543 275.11805512488087L954.9383141191543 275.11805512488087Q952.1877695482827 275.11805512488087 948.375133509451 279.8021508297313Q944.535264356056 284.51347964914487 940.3141315987781 292.2749172996239Q936.1202319560631 300.0091218355399 931.7901667405328 309.32284701611457Q927.4873346395655 318.63657219668943 923.5657661424813 328.1409291792058Q919.6441976453972 337.64528616172225 916.5123894706425 345.7062880723951ZM1002.7868964064932 415.6953924995216L977.4873329773881 415.6953924995216Q979.8293808298132 405.89147125681126 983.8598817851497 393.82720150536494Q987.863149625923 381.7629317539186 993.0646745074722 368.63657053451203Q998.2661993890214 355.51020931510544 1003.7672885307642 342.54724678307736L1003.7672885307642 342.54724678307736Q1009.2411445579443 329.6115173656123 1014.3337369812409 317.7651125306707Q1019.4535625191007 305.891474581166 1026.0984424724934 293.7455054860304L1026.0984424724934 293.7455054860304Q1027.4873313152107 291.3762245190421 1028.549422783171 289.4154402705001Q1029.6387473656941 287.454656021958 1031.0004030938485 286.0930002938038L1031.0004030938485 286.0930002938038Q1023.3751310161848 286.28363209574536 1014.6333012414349 287.94485208409355Q1005.9187045812479 289.60607207244163 997.9666351288273 292.54724844525475Q990.0417987909699 295.48842481806787 984.4317771909745 299.40999331515195Q978.8489887055422 303.33156181223615 977.2967011754464 308.0428906316497L977.2967011754464 308.0428906316497Q977.0788362589418 308.6420191520375 976.506940853117 308.6420191520375L976.506940853117 308.6420191520375Q974.7367884065164 308.6420191520375 974.7367884065164 305.891474581166L974.7367884065164 305.891474581166Q974.7367884065164 305.2923460607782 975.1180520103998 304.1213221345655L975.1180520103998 304.1213221345655Q976.8882044570001 299.02872971126874 979.5298165696194 295.10716121418466Q982.1986617968015 291.1855927171006 984.92197325311 288.43504814622906L984.92197325311 288.43504814622906Q991.403454519124 281.7629350782734 999.4372233152338 280.2923468918668Q1007.4709921113437 278.8217587054603 1016.5123861462877 278.8217587054603L1016.5123861462877 278.8217587054603L1060.8206635404258 278.8217587054603Q1056.1093347210121 282.3620635986613 1050.8261104957737 290.31413305108185Q1045.5156531559724 298.2389693889394 1040.4230607326756 308.0428906316497Q1035.3304683093788 317.84681187435996 1030.9187037501592 327.26946951318706Q1026.5069391909396 336.6648940374511 1023.5657628181265 343.14637530346516L1023.5657628181265 343.14637530346516Q1022.1768739754092 346.2781834782199 1019.6441943210424 352.65073228598163Q1017.0842815521124 359.02328109374326 1014.0614058356101 367.0570498898531Q1011.0112970045446 375.1180518005261 1008.2607524336731 383.6420166587714Q1005.5102078628016 392.16598151701675 1003.7672885307642 399.4099899907972Q1001.9971360841638 406.6812315791406 1001.9971360841638 411.3925603985543L1001.9971360841638 411.3925603985543Q1001.9971360841638 412.7542161267084 1002.2967003443576 413.84354070923183Q1002.5690314899886 414.9056321771921 1002.7868964064932 415.6953924995216L1002.7868964064932 415.6953924995216ZM1047.4764374045144 416.86641642573414L1047.4764374045144 416.86641642573414Q1041.7847164608297 416.86641642573414 1038.8435400880167 412.3729525228253L1038.8435400880167 412.3729525228253Q1037.4818843598623 410.19430335777855 1036.8827558394746 407.2531269849654Q1036.3108604336499 404.3119506121523 1036.3108604336499 401.1801424373977L1036.3108604336499 401.1801424373977Q1036.3108604336499 398.048334262643 1036.6921240375332 394.80759362963596Q1037.1006207559794 391.56685299662894 1037.6725161618042 388.4350448218742L1037.6725161618042 388.4350448218742Q1038.6529082860752 383.34245239857745 1039.93286467054 379.1213196412994Q1041.212821055005 374.90018688402137 1042.5744767831593 370.9786183869373L1042.5744767831593 370.9786183869373L1042.5744767831593 370.78798658499574Q1041.0221892530635 373.7291629578088 1038.6529082860752 377.16053539275737Q1036.3108604336499 380.59190782770594 1035.3304683093788 382.1714284723649L1035.3304683093788 382.1714284723649Q1033.9415794666616 384.3228445228486 1033.1790522588954 384.3228445228486L1033.1790522588954 384.3228445228486Q1032.3892919365658 384.3228445228486 1032.3892919365658 382.5526920762481L1032.3892919365658 382.5526920762481Q1032.3892919365658 378.6311235791639 1034.7313397889911 373.91979475975035L1034.7313397889911 373.91979475975035Q1036.3108604336499 370.78798658499574 1039.0614050045215 365.80432661995127Q1041.7847164608297 360.79343354034376 1044.7258928336428 354.91108079471763Q1047.6670692064558 349.0287280490914 1049.8457183715027 343.5276389073484L1049.8457183715027 343.5276389073484L1036.6921240375332 343.5276389073484Q1035.7117319132622 343.5276389073484 1036.3108604336499 341.9753513772526Q1036.8827558394746 340.39583073259365 1038.0810128802505 338.9252425461871Q1039.252036806463 337.4546543597806 1039.8239322122877 337.4546543597806L1039.8239322122877 337.4546543597806L1054.7476789928578 337.4546543597806Q1056.8990950433417 332.3620619364838 1059.7313389579022 326.4797091908577Q1062.5908159870262 320.59735644523147 1066.2128202239164 315.3958315636824Q1069.8348244608064 310.1943066821333 1074.1376565617738 306.871866705437Q1078.4677217773042 303.54942672874074 1083.3696823986593 303.54942672874074L1083.3696823986593 303.54942672874074Q1085.521098449143 303.54942672874074 1088.76183908215 303.54942672874074Q1092.002579715157 303.54942672874074 1092.7651069229235 303.33156181223615L1092.7651069229235 303.33156181223615Q1088.6529066238977 306.08210638310754 1083.1790505967178 314.22480763746984Q1077.6779614549748 322.36750889183196 1071.1964801889608 337.4546543597806L1071.1964801889608 337.4546543597806L1091.022187590886 337.4546543597806Q1091.5940829967108 337.4546543597806 1090.6136908724397 338.9252425461871Q1089.6332987481687 340.39583073259365 1088.1627105617622 341.9753513772526Q1086.6921223753557 343.5276389073484 1085.3304666472013 343.5276389073484L1085.3304666472013 343.5276389073484L1068.4731687326523 343.5276389073484Q1065.9132559637223 350.0091201733624 1062.863147132657 357.66162536558903Q1059.8402714161548 365.31413055781576 1057.389291105477 372.6670714898485Q1054.9383107947995 380.0200124218812 1053.7672868685868 386.09299696944896L1053.7672868685868 386.09299696944896Q1052.9775265462574 389.8239336645915 1052.9775265462574 392.9557418393462L1052.9775265462574 392.9557418393462Q1052.9775265462574 400.39038211506823 1057.6888553656709 400.39038211506823L1057.6888553656709 400.39038211506823Q1060.8206635404258 400.39038211506823 1065.1234956413928 397.2585739403135Q1069.4535608569233 394.1267657655588 1073.7563929578905 388.6256766238159L1073.7563929578905 388.6256766238159Q1077.6779614549748 383.5330842005191 1081.299965691865 377.6507314548929Q1084.921969928755 371.76837870926676 1087.481882697685 366.86641808791154L1087.481882697685 366.86641808791154Q1088.2716430200144 365.5047623597573 1088.8435384258391 365.5047623597573L1088.8435384258391 365.5047623597573Q1090.041795466615 365.5047623597573 1090.041795466615 368.63657053451203L1090.041795466615 368.63657053451203Q1090.041795466615 370.21609117917086 1089.5515994044795 372.25857477140227Q1089.061403342344 374.3282914781966 1087.8631463015681 376.28907572673864L1087.8631463015681 376.28907572673864Q1085.1398348452599 381.0004045461522 1081.4088981501172 386.58319303158447Q1077.6779614549748 392.16598151701675 1073.7563929578905 397.66707065875977L1073.7563929578905 397.66707065875977Q1071.0058483870191 401.1801424373977 1066.5940838277995 405.7008394548696Q1062.18231926858 410.19430335777855 1057.1986593035354 413.54397644903787Q1052.187766223928 416.86641642573414 1047.4764374045144 416.86641642573414Z " fill="#6da7f2" transform="matrix(0.8007209682573645,0,0,0.8007209682573643,0,23.75269112930475)"/></g></svg>